<svg width="1674" height="1673" viewBox="0 0 1674 1673" fill="none" xmlns="http://www.w3.org/2000/svg">
<path d="M1032.59 1125.08C1053.74 1150.9 1069.83 1181.04 1079.33 1213.97C1009.81 1257.94 927.425 1283.39 839.091 1283.39C750.757 1283.39 668.367 1257.94 598.855 1213.97C608.354 1181.04 624.439 1150.9 645.592 1125.08C701.019 1161.92 767.547 1183.39 839.091 1183.39C910.634 1183.39 977.162 1161.92 1032.59 1125.08Z" fill="black"/>
<path d="M500.989 924.201C514.396 974.239 538.614 1019.85 570.987 1058.39C548.693 1084.93 530.265 1114.82 516.573 1147.2C459.134 1088.18 417.758 1013.45 399.503 930.067C409.583 930.94 419.785 931.388 430.091 931.388C454.381 931.388 478.093 928.912 500.989 924.201Z" fill="black"/>
<path d="M1176.94 925.145C1198.36 929.242 1220.48 931.388 1243.09 931.388C1255.14 931.388 1267.05 930.779 1278.78 929.59C1260.58 1013.17 1219.16 1088.07 1161.61 1147.2C1147.92 1114.82 1129.49 1084.93 1107.19 1058.39C1139.36 1020.1 1163.48 974.812 1176.94 925.145Z" fill="black"/>
<path d="M631.907 433.814C651.533 460.609 665.953 491.456 673.675 524.867C566.283 582.567 492.488 694.7 489.204 824.356C470.252 828.951 450.456 831.388 430.091 831.388C416.138 831.388 402.453 830.243 389.123 828.046C391.119 656.486 489.118 508.004 631.907 433.814Z" fill="black"/>
<path d="M1042.65 431.953C1187.16 505.376 1286.71 654.534 1289.05 827.172C1274.15 829.94 1258.79 831.388 1243.09 831.388C1224.52 831.388 1206.42 829.361 1189 825.52C1186.09 693.588 1110.18 579.657 1000.06 522.52C1008.09 489.237 1022.79 458.552 1042.65 431.953Z" fill="black"/>
<path d="M839.091 383.388C875.948 383.388 911.771 387.819 946.055 396.178C928.159 424.818 914.29 456.233 905.241 489.63C883.82 485.532 861.706 483.388 839.091 483.388C814.8 483.388 791.088 485.863 768.191 490.573C759.261 457.244 745.535 425.877 727.796 397.258C763.39 388.202 800.678 383.388 839.091 383.388Z" fill="black"/>
<path d="M839.091 833.388C1087.62 833.388 1289.09 1034.86 1289.09 1283.39C1289.09 1379.93 1258.69 1469.37 1206.93 1542.66L1134.09 1471.81C1168.91 1417.42 1189.09 1352.76 1189.09 1283.39C1189.09 1090.09 1032.39 933.388 839.091 933.388C645.791 933.388 489.091 1090.09 489.091 1283.39C489.091 1352.51 509.128 1416.94 543.708 1471.21L470.842 1542.09C419.335 1468.91 389.091 1379.68 389.091 1283.39C389.091 1034.86 590.563 833.388 839.091 833.388Z" fill="black"/>
<path d="M1202.96 233.663C1028.56 253.573 893.091 401.661 893.091 581.388C893.091 774.687 1049.79 931.388 1243.09 931.388C1396.77 931.388 1527.31 832.345 1574.37 694.61L1673.39 713.487C1616.95 897.553 1445.65 1031.39 1243.09 1031.39C994.563 1031.39 793.091 829.916 793.091 581.388C793.091 340.795 981.902 144.303 1219.43 132L1202.96 233.663Z" fill="black"/>
<path d="M457.518 132.212C693.274 146.386 880.091 342.069 880.091 581.388C880.091 829.916 678.619 1031.39 430.091 1031.39C227.779 1031.39 56.6499 897.879 0 714.16L99.04 695.278C146.295 832.665 276.663 931.388 430.091 931.388C623.39 931.388 780.091 774.687 780.091 581.388C780.091 402.971 646.592 255.736 474.035 234.12L457.518 132.212Z" fill="black"/>
</svg>
