<?xml version="1.0" encoding="iso-8859-1"?>
<!-- Uploaded to: SVG Repo, www.svgrepo.com, Generator: SVG Repo Mixer Tools -->
<!DOCTYPE svg PUBLIC "-//W3C//DTD SVG 1.1//EN" "http://www.w3.org/Graphics/SVG/1.1/DTD/svg11.dtd">
<svg fill="#000000" height="800px" width="800px" version="1.1" id="Capa_1" xmlns="http://www.w3.org/2000/svg" xmlns:xlink="http://www.w3.org/1999/xlink" 
	 viewBox="0 0 301.057 301.057" xml:space="preserve">
<path d="M253.846,61.381c-26.165-20.576-57.049-33.171-88.317-36.254V15c0-8.284-6.716-15-15-15s-15,6.716-15,15v10.127
	C104.26,28.21,73.376,40.805,47.211,61.381C19.649,83.054,2.527,109.849,2.527,131.308c0,6.712,3.23,13.091,8.641,17.063
	c5.412,3.972,12.466,5.145,18.866,3.134c5.813-1.824,12.056-2.749,18.552-2.749c19.355,0,33.355,8.106,38.646,16.144
	c3.231,4.907,8.41,8.275,14.207,9.239c5.805,0.97,11.799-0.545,16.447-4.146c4.764-3.693,10.856-6.449,17.643-8.098v105.681
	c0,18.462,15.02,33.481,33.481,33.481c18.461,0,33.48-15.02,33.48-33.481v-11.847c0-8.284-6.716-15-15-15s-15,6.716-15,15v11.847
	c0,1.92-1.562,3.481-3.48,3.481c-1.92,0-3.481-1.562-3.481-3.481V161.895c6.786,1.649,12.879,4.405,17.644,8.099
	c3.728,2.89,8.321,4.436,12.992,4.436c1.153,0,2.311-0.095,3.461-0.286c5.792-0.967,10.967-4.335,14.202-9.246
	c5.288-8.034,19.288-16.141,38.644-16.141c6.506,0,12.754,0.927,18.574,2.756c6.387,2.005,13.43,0.843,18.834-3.115
	c5.406-3.96,8.641-10.325,8.65-17.089C298.529,109.849,281.407,83.054,253.846,61.381z M252.471,118.756
	c-23.572,0-45.018,8.498-58.167,22.622c-12.394-7.299-27.62-11.249-43.775-11.249s-31.384,3.951-43.775,11.249
	c-13.152-14.126-34.595-22.622-58.167-22.622c-4.348,0-8.637,0.288-12.843,0.86c12.184-25.532,57.722-65.24,114.785-65.24
	c39.916,0,70.247,19.164,84.773,30.587c15.016,11.808,25.104,24.559,29.933,34.642C261.054,119.04,256.791,118.756,252.471,118.756z
	"/>
</svg>