<svg width="1674" height="1674" viewBox="0 0 1674 1674" fill="none" xmlns="http://www.w3.org/2000/svg">
<path d="M518.424 663.505C547.733 639.052 590.335 639.051 619.645 663.505L1109.52 1072.23C1138.61 1096.49 1143.97 1132.59 1132.34 1162.01V1674H6.70898V1164.39C-6.18142 1134.56 -1.32869 1097.15 28.5449 1072.23L518.424 663.505ZM98.9697 1141.45H109.789V1241.45H106.709V1574H1032.34V1241.45H1029.26V1141.45H1039.1L569.034 749.257L98.9697 1141.45ZM1473.09 912.325H1373.09V602.702H1473.09V912.325ZM1174.65 482.924L1208.61 519.629L993.259 718.82L959.308 682.115L925.355 645.409L1140.7 446.219L1174.65 482.924ZM1423.5 1.00488C1561.45 1.88491 1673 114.755 1673 253.859L1673 255.494C1672.12 394.392 1560.03 506.718 1421.88 506.719L1420.25 506.713C1282.85 505.837 1171.63 393.847 1170.76 255.494L1170.75 253.859C1170.75 114.209 1283.18 1 1421.88 1L1423.5 1.00488ZM1421.88 101C1339.06 101 1270.75 168.788 1270.75 253.859C1270.75 338.931 1339.06 406.719 1421.88 406.719C1504.69 406.718 1573 338.931 1573 253.859C1573 168.788 1504.69 101 1421.88 101ZM1086.61 185.862L1085.94 235.857L1085.27 285.854L777.753 281.725L779.095 181.734L1086.61 185.862Z" fill="black"/>
</svg>
