<svg width="1999" height="1922" viewBox="0 0 1999 1922" fill="none" xmlns="http://www.w3.org/2000/svg">
<path fill-rule="evenodd" clip-rule="evenodd" d="M1041.39 5.58594C1445.22 18.8388 1840.97 258.069 1983.64 710.667L1998.82 758.815L1934.14 779.225V786.007H1912.65L1901.55 789.512L1900.44 786.007H1045.9L1050.7 1616.5H1051V1667C1051 1667.15 1051 1667.29 1051 1667.39L1051 1667.5L1051.32 1718.31H1046.23C1034.48 1779.32 1001.83 1827.72 957.236 1861.83C902.244 1903.9 831.509 1922.67 763.485 1921.98C695.443 1921.29 625.128 1901.11 570.593 1859.03C514.745 1815.93 477 1750.73 477 1667V1616.5H579V1667C579 1716.88 600.255 1753.08 632.907 1778.27C666.872 1804.48 714.558 1819.48 764.515 1819.99C814.491 1820.49 861.756 1806.45 895.264 1780.82L896.755 1779.67C927.873 1755.25 948.864 1719.21 948.997 1667.5L943.898 786.007H97.7705L96.0947 790.715L82.9033 786.007L59 786.008V777.478L0.0283203 756.435L16.9551 708.894C176.391 261.085 554.014 30.7645 939.398 7.04785L939.363 0.74707L1041.36 0.249023L1041.39 5.58594ZM792.212 130.574C517.367 192.194 266.057 375.179 135.198 686.007H469.271C494.306 517.817 548.846 383.354 633.578 276.603C678.809 219.618 731.912 171.452 792.212 130.574ZM940.279 160.189C846.594 206.355 770.768 264.611 711.903 338.772C642.57 426.124 594.365 538.571 570.468 686.007H943.321L940.279 160.189ZM1174.6 121.564C1254.8 168.214 1321.21 227.503 1375.18 299.87C1453.24 404.527 1503.33 533.868 1533.79 686.007H1867.09C1744.09 364.453 1472.73 173.583 1174.6 121.564ZM1045.32 686.007H1431.66C1402.95 552.646 1358.57 444.851 1295.03 359.658C1233 276.507 1151 212.558 1042.33 167.652L1045.32 686.007Z" fill="black"/>
</svg>
